<svg xmlns="http://www.w3.org/2000/svg" xmlns:xlink="http://www.w3.org/1999/xlink" width="286" height="147" viewBox="0 0 286 147">
    <defs>
        <linearGradient id="nu3dajvyud" x1="-55.007%" x2="134.847%" y1="51.26%" y2="50%">
            <stop offset="0%" stop-color="#1D4F91"/>
            <stop offset="51.763%" stop-color="#426DA9"/>
            <stop offset="100%" stop-color="#6D2077"/>
        </linearGradient>
        <linearGradient id="2dyd24w6oj" x1="-28.379%" x2="123.721%" y1="117.896%" y2="31.454%">
            <stop offset="0%" stop-color="#1D4F91"/>
            <stop offset="51.763%" stop-color="#426DA9"/>
            <stop offset="100%" stop-color="#6D2077"/>
        </linearGradient>
        <linearGradient id="k2ipm56ihl" x1="22.467%" x2="123.297%" y1="72.959%" y2="-24.08%">
            <stop offset="0%" stop-color="#FF8F1C"/>
            <stop offset="99.483%" stop-color="#EA1D1D"/>
            <stop offset="100%" stop-color="#6D2077"/>
        </linearGradient>
        <linearGradient id="v0t2zwu09m" x1="22.526%" x2="123.142%" y1="72.999%" y2="-24.211%">
            <stop offset="0%" stop-color="#FF8F1C"/>
            <stop offset="99.483%" stop-color="#EA1D1D"/>
            <stop offset="100%" stop-color="#6D2077"/>
        </linearGradient>
        <linearGradient id="vl5fy1slrn" x1="-36.671%" x2="137.701%" y1="142.068%" y2="-41.173%">
            <stop offset="0%" stop-color="#7795BD"/>
            <stop offset="49.372%" stop-color="#ECF0F6"/>
            <stop offset="100%" stop-color="#ECF0F6"/>
        </linearGradient>
        <linearGradient id="twkg8cig7o" x1=".134%" x2="79.517%" y1="92.808%" y2="21.092%">
            <stop offset="0%" stop-color="#AF1685"/>
            <stop offset="100%" stop-color="#E63888"/>
        </linearGradient>
        <path id="2tek4vuvra" d="M0 0h286v139c0 4.418-3.582 8-8 8H8c-4.418 0-8-3.582-8-8V0z"/>
        <path id="fh4k0x43xc" d="M0 75h324V27.176c-11.692-15.6-32.555-22.085-51.98-21.19-14.102.655-28.809 5.177-38.022 15.985-2.225 2.602-4.127 5.631-4.775 9.002-1 5.36 1.211 11.149-.676 16.268-2.578 6.997-11.382 9.244-18.75 8.632-6.508-.54-12.805-2.488-19.158-3.967-17.2-3.982-35.88-4.395-53.277-1.85-16.411 2.418-31.132 11.89-47.882 12.672-17.791.796-42.894 11.39-50.994-4.622-4.424-8.76-6.03-18.686-9.777-27.759C22.187 14.577 14.481 5.177 0 0v75z"/>
        <path id="s5c3lb8u4f" d="M79.882 10.208c-3.572 3.646-6.223 8.242-6.367 13.099-.173 5.611 2.982 10.885 6.872 15.247 3.89 4.361 8.6 8.085 12.418 12.5 7.145 8.254 10.761 20.311 4.71 29.27-5.517 8.176-16.898 11.132-25.167 17.121-9.45 6.849-14.709 18.15-13.499 29.049.764 6.822 3.861 13.28 5.086 20.051 1.195 6.77.057 14.648-5.936 18.88-7.39 5.247-17.979 2.63-27.343 1.693-7.116-.703-14.65-.183-20.831 3.072C5.042 172.716 1.066 177.156 0 182h122.064l.936-60.52V3.907C117.886 1.276 112.008 0 106.116 0c-9.81 0-19.693 3.529-26.234 10.208"/>
        <path id="fvk4o98r8i" d="M72.515 23.307c-.173 5.611 2.982 10.885 6.872 15.247 3.89 4.361 8.6 8.085 12.418 12.5 7.145 8.254 10.761 20.311 4.71 29.27-5.517 8.176-16.898 11.132-25.167 17.121-9.45 6.849-14.709 18.15-13.499 29.049.764 6.822 3.861 13.28 5.086 20.051 1.195 6.77.057 14.648-5.936 18.88-7.39 5.247-17.979 2.63-27.343 1.693-7.116-.703-14.65-.183-20.831 3.072C4.042 172.716.066 177.156-1 182h122.064l.936-60.52V3.907C116.886 1.276 111.008 0 105.116 0c-9.81 0-19.693 3.529-26.234 10.208-3.572 3.646-6.223 8.242-6.367 13.099z"/>
        <filter id="gkumdht95h" width="111.4%" height="107.7%" x="-5.7%" y="-2.7%" filterUnits="objectBoundingBox">
            <feOffset dy="2" in="SourceAlpha" result="shadowOffsetOuter1"/>
            <feGaussianBlur in="shadowOffsetOuter1" result="shadowBlurOuter1" stdDeviation="2"/>
            <feColorMatrix in="shadowBlurOuter1" values="0 0 0 0 0 0 0 0 0 0 0 0 0 0 0 0 0 0 0.5 0"/>
        </filter>
        <filter id="xzljhd1rkk" width="346.9%" height="350%" x="-123.5%" y="-125%" filterUnits="objectBoundingBox">
            <feOffset dy="32" in="SourceAlpha" result="shadowOffsetOuter1"/>
            <feGaussianBlur in="shadowOffsetOuter1" result="shadowBlurOuter1" stdDeviation="10"/>
            <feColorMatrix in="shadowBlurOuter1" result="shadowMatrixOuter1" values="0 0 0 0 0.333333333 0 0 0 0 0.337254902 0 0 0 0 0.341176471 0 0 0 0.48 0"/>
            <feMerge>
                <feMergeNode in="shadowMatrixOuter1"/>
                <feMergeNode in="SourceGraphic"/>
            </feMerge>
        </filter>
    </defs>
    <g fill="none" fill-rule="evenodd">
        <g>
            <g>
                <g>
                    <g transform="translate(-962 -697) translate(32 278) translate(930 54) translate(0 365)">
                        <mask id="6r8r6c8ocb" fill="#fff">
                            <use xlink:href="#2tek4vuvra"/>
                        </mask>
                        <g mask="url(#6r8r6c8ocb)">
                            <g>
                                <g transform="translate(-59 1) translate(0 85)">
                                    <mask id="pwp71x61ee" fill="#fff">
                                        <use xlink:href="#fh4k0x43xc"/>
                                    </mask>
                                    <path fill="url(#nu3dajvyud)" d="M0 77.246h324V29.422c-11.692-15.6-32.555-22.085-51.98-21.189-14.102.655-28.809 5.177-38.022 15.984-2.225 2.603-4.127 5.632-4.775 9.002-1 5.361 1.211 11.15-.676 16.269-2.578 6.996-11.382 9.243-18.75 8.632-6.508-.54-12.805-2.489-19.158-3.968-17.2-3.982-35.88-4.394-53.277-1.849-16.411 2.418-31.132 11.889-47.882 12.671-17.791.796-42.894 11.39-50.994-4.622-4.424-8.76-4.288-9.633-8.035-18.706C23.93 25.876 14.481 27.803 0 22.626v54.62z" mask="url(#pwp71x61ee)"/>
                                </g>
                                <g transform="translate(-59 1) translate(226)">
                                    <mask id="1am188jejg" fill="#fff">
                                        <use xlink:href="#s5c3lb8u4f"/>
                                    </mask>
                                    <g mask="url(#1am188jejg)">
                                        <use fill="#000" filter="url(#gkumdht95h)" xlink:href="#fvk4o98r8i"/>
                                        <use fill="url(#2dyd24w6oj)" xlink:href="#fvk4o98r8i"/>
                                    </g>
                                </g>
                                <g fill-rule="nonzero" filter="url(#xzljhd1rkk)" transform="translate(-59 1) rotate(5 -125.797 2800.952)">
                                    <g>
                                        <path fill="url(#k2ipm56ihl)" d="M12.606 7.2L.676 19.113c-.901.902-.901 2.36 0 3.262.9.902 2.358.902 3.258 0l11.931-11.91c.9-.903.9-2.362 0-3.263-.9-.902-2.358-.902-3.259 0z" transform="translate(.4 55.545)"/>
                                        <path fill="url(#v0t2zwu09m)" d="M19.124 13.725l-3.259 3.263c-.9.901-.9 2.36 0 3.262.9.902 2.358.902 3.259 0l3.259-3.262c.9-.902.9-2.361 0-3.263-.901-.901-2.359-.901-3.26 0zM6.088 7.2l3.26-3.261c.9-.902.9-2.361 0-3.263-.901-.901-2.36-.901-3.26 0L2.83 3.94c-.901.901-.901 2.36 0 3.262.9.901 2.358.901 3.258 0z" transform="translate(.4 55.545)"/>
                                    </g>
                                    <g>
                                        <path fill="url(#vl5fy1slrn)" d="M43.716 33.424H27.472L19.35 48.06l-1.625 1.626c-2.696 2.7-2.696 7.058 0 9.757 2.697 2.7 7.05 2.7 9.747 0l1.624-1.626 14.62-8.13V33.423zM16.531 43.815c.748-.142 1.375-.646 1.678-1.346 1.7-3.932 5.48-9.73 10.115-15.51.47-.587.623-1.367.409-2.09-.439-1.487-1.866-1.601-2.16-1.757-.451-.151-11.215-3.58-21.844 7.06-8.03 8.04-3.447 12.811-3.248 13.01.897.899 2.35.899 3.248 0 2.688-2.69 7.06-2.69 9.747 0 .538.538 1.307.775 2.055.633zm35.731 4.61c-.722-.215-1.5-.061-2.088.409C44.2 53.633 38.562 57.32 34.701 58.95c-.704.298-1.215.927-1.363 1.678-.144.751.09 1.526.632 2.068 2.687 2.69 2.687 7.067 0 9.757-.898.899-.898 2.354 0 3.252.198.199 4.965 4.787 12.995-3.252 10.629-10.64 7.204-21.415 7.053-21.865-.149-.28-.274-1.728-1.756-2.164zM76.855 2.201c-.162-1.008-.942-1.789-1.95-1.952-.584-.065-9.259-1.203-20.11 1.984l6.717 13.229 13.361 6.87c3.184-10.862 2.047-19.546 1.982-20.131zM45.95 16.15c-4.13 4.134-4.13 10.9 0 15.035 4.168 4.172 10.89 4.135 15.02 0 4.168-4.172 4.168-10.863 0-15.035-4.13-4.135-10.852-4.173-15.02 0z" transform="translate(2.094 .122)"/>
                                        <path fill="url(#twkg8cig7o)" d="M54.94 2.064c-7.125 2.052-15.16 5.992-22.479 13.32-2.407 2.409-5.042 5.372-7.612 8.53-4.88 6.123-8.913 12.31-10.735 16.61-.39.846-.228 1.856.456 2.54l4.88 4.884L30.834 36.55c2.7-2.703 7.059-2.703 9.759 0 2.732 2.736 2.732 7.034 0 9.77L29.208 57.718l4.88 4.884c.65.652 1.659.88 2.505.489 4.26-1.791 10.312-5.7 16.623-10.78 3.155-2.572 6.115-5.21 8.522-7.62 7.32-7.326 11.256-15.37 13.305-22.502L54.94 2.064zm5.172 27.973c-3.578 3.583-9.401 3.615-13.012 0-3.579-3.582-3.579-9.443 0-13.026 3.61-3.614 9.434-3.582 13.012 0 3.61 3.615 3.61 9.412 0 13.026z" transform="translate(2.094 .122)"/>
                                    </g>
                                </g>
                            </g>
                        </g>
                    </g>
                </g>
            </g>
        </g>
    </g>
</svg>
