<svg xmlns="http://www.w3.org/2000/svg" viewBox="0 0 40 40"><metadata><?xpacket begin="﻿" id="W5M0MpCehiHzreSzNTczkc9d"?>
<x:xmpmeta xmlns:x="adobe:ns:meta/" x:xmptk="Adobe XMP Core 6.0-c002 79.164352, 2020/01/30-15:50:38        ">
   <rdf:RDF xmlns:rdf="http://www.w3.org/1999/02/22-rdf-syntax-ns#">
      <rdf:Description rdf:about=""
            xmlns:xmpMM="http://ns.adobe.com/xap/1.0/mm/"
            xmlns:stEvt="http://ns.adobe.com/xap/1.0/sType/ResourceEvent#"
            xmlns:xmp="http://ns.adobe.com/xap/1.0/">
         <xmpMM:PreservedFileName>Primary_Icons_Master_Dark_Blue_big_data_8.svg</xmpMM:PreservedFileName>
         <xmpMM:InstanceID>xmp.iid:0bdf204e-796e-42df-a385-0f6f20be4159</xmpMM:InstanceID>
         <xmpMM:DocumentID>xmp.did:0bdf204e-796e-42df-a385-0f6f20be4159</xmpMM:DocumentID>
         <xmpMM:OriginalDocumentID>xmp.did:0bdf204e-796e-42df-a385-0f6f20be4159</xmpMM:OriginalDocumentID>
         <xmpMM:History>
            <rdf:Seq>
               <rdf:li>
                  <rdf:Description>
                     <stEvt:action>saved</stEvt:action>
                     <stEvt:instanceID>xmp.iid:0bdf204e-796e-42df-a385-0f6f20be4159</stEvt:instanceID>
                     <stEvt:when>2020-03-16T20:36:22-07:00</stEvt:when>
                     <stEvt:softwareAgent>Adobe Bridge 2020 (Macintosh)</stEvt:softwareAgent>
                     <stEvt:changed>/metadata</stEvt:changed>
                  </rdf:Description>
               </rdf:li>
            </rdf:Seq>
         </xmpMM:History>
         <xmp:MetadataDate>2020-03-16T20:36:22-07:00</xmp:MetadataDate>
      </rdf:Description>
   </rdf:RDF>
</x:xmpmeta>
                                                                                                    
                                                                                                    
                                                                                                    
                                                                                                    
                                                                                                    
                                                                                                    
                                                                                                    
                                                                                                    
                                                                                                    
                                                                                                    
                                                                                                    
                                                                                                    
                                                                                                    
                                                                                                    
                                                                                                    
                                                                                                    
                                                                                                    
                                                                                                    
                                                                                                    
                                                                                                    
                           
<?xpacket end="w"?></metadata>
<defs><style>.a{fill:none;}.b{fill:#a3b6d2;}.c{fill:#18488e;}</style></defs><path class="a" d="M9.72,12.47a22.59,22.59,0,0,1,2.07-3.92,19.46,19.46,0,0,1,1.9-2.41,14.89,14.89,0,0,0-8.5,8.52,14.09,14.09,0,0,1,3.36-1.78C8.92,12.74,9.31,12.6,9.72,12.47Z"/><path class="a" d="M8.89,14.88C6.28,16,4.74,17.34,4.32,19H8.19A20.05,20.05,0,0,1,8.89,14.88Z"/><path class="a" d="M12.19,11.82a32.6,32.6,0,0,1,5.88-.72V5.86a2.34,2.34,0,0,1-.43-.33,12.28,12.28,0,0,0-4.2,4.12A19.39,19.39,0,0,0,12.19,11.82Z"/><path class="a" d="M8.89,25.12A20.05,20.05,0,0,1,8.19,21H4.32C4.74,22.66,6.28,24.05,8.89,25.12Z"/><path class="a" d="M10.18,19h5a4,4,0,0,1,2.85-2.85V13.08a30.09,30.09,0,0,0-6.85,1A18,18,0,0,0,10.18,19Z"/><path class="a" d="M9.72,27.53c-.41-.13-.8-.27-1.17-.41a14.09,14.09,0,0,1-3.36-1.78,14.89,14.89,0,0,0,8.5,8.52,18.56,18.56,0,0,1-1.9-2.41A22.59,22.59,0,0,1,9.72,27.53Z"/><path class="a" d="M15.22,21h-5a18,18,0,0,0,1,4.91,30.09,30.09,0,0,0,6.85,1V23.84A4,4,0,0,1,15.22,21Z"/><path class="a" d="M13.44,30.35a12.28,12.28,0,0,0,4.2,4.12,2.34,2.34,0,0,1,.43-.33V28.9a32.6,32.6,0,0,1-5.88-.72A19.39,19.39,0,0,0,13.44,30.35Z"/><path class="b" d="M19.06,18a2,2,0,1,0,2,2A2,2,0,0,0,19.06,18Z"/><path class="c" d="M34.92,24a1.93,1.93,0,0,0-1.26.46L23,20.42a3,3,0,0,0,0-.84l10.66-4a1.93,1.93,0,0,0,1.26.46,2,2,0,1,0-2-2.31l-10.66,4-.21-.27L28.78,8.1H29a2,2,0,1,0-2-2,1.86,1.86,0,0,0,.18.82L20.49,16.3l-.44-.14V5.86a2,2,0,0,0-1-3.7A2,2,0,0,0,17.3,3.24,16.88,16.88,0,0,0,2.21,20h0A16.88,16.88,0,0,0,17.3,36.76a2,2,0,0,0,3.74-.9,2,2,0,0,0-1-1.72V23.84l.44-.14,6.68,9.36a1.86,1.86,0,0,0-.18.82,2,2,0,1,0,2-2h-.19L22.1,22.55l.21-.27,10.66,4a2,2,0,1,0,2-2.31ZM17.64,5.53a2.34,2.34,0,0,0,.43.33V11.1a32.6,32.6,0,0,0-5.88.72,19.39,19.39,0,0,1,1.25-2.17A12.28,12.28,0,0,1,17.64,5.53Zm.43,7.55v3.08A4,4,0,0,0,15.22,19h-5a18,18,0,0,1,1-4.91A30.09,30.09,0,0,1,18.07,13.08ZM13.69,6.14a19.46,19.46,0,0,0-1.9,2.41,22.59,22.59,0,0,0-2.07,3.92c-.41.13-.8.27-1.17.41a14.09,14.09,0,0,0-3.36,1.78A14.89,14.89,0,0,1,13.69,6.14Zm-4.8,8.74A20.05,20.05,0,0,0,8.19,19H4.32C4.74,17.34,6.28,16,8.89,14.88ZM8.19,21a20.05,20.05,0,0,0,.7,4.13C6.28,24.05,4.74,22.66,4.32,21Zm-3,4.35a14.09,14.09,0,0,0,3.36,1.78c.37.14.76.28,1.17.41a22.59,22.59,0,0,0,2.07,3.92,18.56,18.56,0,0,0,1.9,2.41A14.89,14.89,0,0,1,5.19,25.34Zm12.88,8.8a2.34,2.34,0,0,0-.43.33,12.28,12.28,0,0,1-4.2-4.12,19.39,19.39,0,0,1-1.25-2.17,32.6,32.6,0,0,0,5.88.72Zm0-7.22a30.09,30.09,0,0,1-6.85-1,18,18,0,0,1-1-4.91h5a4,4,0,0,0,2.85,2.85Zm1-4.94a2,2,0,1,1,2-2A2,2,0,0,1,19.06,22Z"/></svg>