<svg xmlns="http://www.w3.org/2000/svg" viewBox="0 0 40 40"><metadata><?xpacket begin="﻿" id="W5M0MpCehiHzreSzNTczkc9d"?>
<x:xmpmeta xmlns:x="adobe:ns:meta/" x:xmptk="Adobe XMP Core 6.0-c002 79.164352, 2020/01/30-15:50:38        ">
   <rdf:RDF xmlns:rdf="http://www.w3.org/1999/02/22-rdf-syntax-ns#">
      <rdf:Description rdf:about=""
            xmlns:xmpMM="http://ns.adobe.com/xap/1.0/mm/"
            xmlns:stEvt="http://ns.adobe.com/xap/1.0/sType/ResourceEvent#"
            xmlns:xmp="http://ns.adobe.com/xap/1.0/">
         <xmpMM:PreservedFileName>Primary_Icons_Master_Dark_Blue_certificate_8.svg</xmpMM:PreservedFileName>
         <xmpMM:InstanceID>xmp.iid:57752d43-856b-4185-971d-f1bda616c79e</xmpMM:InstanceID>
         <xmpMM:DocumentID>xmp.did:57752d43-856b-4185-971d-f1bda616c79e</xmpMM:DocumentID>
         <xmpMM:OriginalDocumentID>xmp.did:57752d43-856b-4185-971d-f1bda616c79e</xmpMM:OriginalDocumentID>
         <xmpMM:History>
            <rdf:Seq>
               <rdf:li>
                  <rdf:Description>
                     <stEvt:action>saved</stEvt:action>
                     <stEvt:instanceID>xmp.iid:57752d43-856b-4185-971d-f1bda616c79e</stEvt:instanceID>
                     <stEvt:when>2020-03-16T20:36:23-07:00</stEvt:when>
                     <stEvt:softwareAgent>Adobe Bridge 2020 (Macintosh)</stEvt:softwareAgent>
                     <stEvt:changed>/metadata</stEvt:changed>
                  </rdf:Description>
               </rdf:li>
            </rdf:Seq>
         </xmpMM:History>
         <xmp:MetadataDate>2020-03-16T20:36:23-07:00</xmp:MetadataDate>
      </rdf:Description>
   </rdf:RDF>
</x:xmpmeta>
                                                                                                    
                                                                                                    
                                                                                                    
                                                                                                    
                                                                                                    
                                                                                                    
                                                                                                    
                                                                                                    
                                                                                                    
                                                                                                    
                                                                                                    
                                                                                                    
                                                                                                    
                                                                                                    
                                                                                                    
                                                                                                    
                                                                                                    
                                                                                                    
                                                                                                    
                                                                                                    
                           
<?xpacket end="w"?></metadata>
<defs><style>.a{fill:none;}.b{fill:#18488e;}.c{fill:#a3b6d2;}</style></defs><path class="a" d="M15.57,27.35a2.48,2.48,0,1,0,.84,3.4A2.47,2.47,0,0,0,15.57,27.35Z"/><path class="a" d="M23.84,8.27a4.63,4.63,0,0,0,4.62,4.62h1.73L23.84,5.28Z"/><path class="b" d="M32.87,13.22,23.63,2.14a1,1,0,0,0-.71-.34H11.83A6.49,6.49,0,0,0,5.36,8.27V30.45a6.47,6.47,0,0,0,6,6.44V35a4.63,4.63,0,0,1-4.13-4.59V8.27a4.63,4.63,0,0,1,4.62-4.62H22V8.27a6.47,6.47,0,0,0,6.46,6.47h2.78V30.45a4.63,4.63,0,0,1-4.62,4.62H17.25v1.84h9.37a6.47,6.47,0,0,0,6.46-6.46V13.82A.93.93,0,0,0,32.87,13.22Zm-4.41-.33a4.63,4.63,0,0,1-4.62-4.62v-3l6.35,7.61Z"/><path class="b" d="M18,31.73h0a1.22,1.22,0,0,0,.1-.24,1,1,0,0,0,0-.72.31.31,0,0,1,0-.08.29.29,0,0,1,0-.09h0a.69.69,0,0,1,0-.25.85.85,0,0,1,0-.23s0-.08,0-.12a1.12,1.12,0,0,1,.19-.29h0a1.09,1.09,0,0,0,.26-.54.93.93,0,0,0,0-.23h0s0-.08,0-.12l0-.13s0-.08,0-.12a1.08,1.08,0,0,0-.48-.53l-.14-.11h0a1.41,1.41,0,0,1-.17-.18,1.13,1.13,0,0,1-.21-.56V27h0a1.18,1.18,0,0,0-.09-.46.92.92,0,0,0-.2-.31l-.09-.09h0l-.09-.07,0,0-.07,0,0,0-.07,0h0l-.1,0h0l-.1,0h-.26l-.11,0h-.31a1.1,1.1,0,0,1-.72-.41h0l-.12-.13-.1-.09-.08,0a1.48,1.48,0,0,0-.29-.12,1.07,1.07,0,0,0-.25,0h-.26l-.06,0H14l-.06,0,0,0-.06,0,0,0-.06,0,0,0-.06.05,0,0-.08.08h0l-.07.08h0l-.07.06h0l-.09.07,0,0-.07,0,0,0-.09,0h0l-.1,0h-.37l-.11,0H12l-.11,0h0l-.09,0,0,0-.07,0,0,0-.09.06a1,1,0,0,0-.18.18,1.06,1.06,0,0,0-.23.66h0a1.49,1.49,0,0,1,0,.21h0l-.06.2a1.25,1.25,0,0,1-.3.42l-.19.13a1.23,1.23,0,0,0-.29.22,1.11,1.11,0,0,0-.27.54,1,1,0,0,0,0,.48,1,1,0,0,0,.21.42h0l.06.08.06.09h0a.61.61,0,0,1,.05.12.88.88,0,0,1,.07.23,1.06,1.06,0,0,1,0,.47s0,.07,0,.11a1.13,1.13,0,0,0,0,.83l.05.11a1.05,1.05,0,0,0,.4.41.93.93,0,0,0,.36.14h0l.1,0,.1,0h0l.22.11a1.15,1.15,0,0,1,.32.34l.06.1s0,.07,0,.11a.5.5,0,0,0,0,.13l0,.05a1.36,1.36,0,0,0,.24.24v1.81h0v1.84h0V38.2l1.91-1.35,1.91,1.35V33.31l.08-.07a.45.45,0,0,0,.1-.14.92.92,0,0,0,.07-.26s0,0,0-.05,0-.07,0-.11a.65.65,0,0,1,.15-.18,1.09,1.09,0,0,1,.41-.22l.11,0a1.09,1.09,0,0,0,.75-.41Zm-1.61-1a2.48,2.48,0,1,1-.84-3.4A2.49,2.49,0,0,1,16.41,30.75Z"/><rect class="c" x="9.98" y="12.89" width="9.24" height="1.85"/><rect class="c" x="9.98" y="20.28" width="18.48" height="1.85"/><rect class="c" x="9.98" y="9.2" width="9.24" height="1.85"/><rect class="c" x="19.22" y="23.98" width="9.24" height="1.85"/><rect class="c" x="9.98" y="16.59" width="18.48" height="1.85"/></svg>