<svg xmlns="http://www.w3.org/2000/svg" viewBox="0 0 40 40"><metadata><?xpacket begin="﻿" id="W5M0MpCehiHzreSzNTczkc9d"?>
<x:xmpmeta xmlns:x="adobe:ns:meta/" x:xmptk="Adobe XMP Core 6.0-c002 79.164352, 2020/01/30-15:50:38        ">
   <rdf:RDF xmlns:rdf="http://www.w3.org/1999/02/22-rdf-syntax-ns#">
      <rdf:Description rdf:about=""
            xmlns:xmpMM="http://ns.adobe.com/xap/1.0/mm/"
            xmlns:stEvt="http://ns.adobe.com/xap/1.0/sType/ResourceEvent#"
            xmlns:xmp="http://ns.adobe.com/xap/1.0/">
         <xmpMM:PreservedFileName>Primary_Icons_Master_Dark_Blue_credit_card_8.svg</xmpMM:PreservedFileName>
         <xmpMM:InstanceID>xmp.iid:98d78ed4-6b5f-4717-b568-4f99d42ae03f</xmpMM:InstanceID>
         <xmpMM:DocumentID>xmp.did:98d78ed4-6b5f-4717-b568-4f99d42ae03f</xmpMM:DocumentID>
         <xmpMM:OriginalDocumentID>xmp.did:98d78ed4-6b5f-4717-b568-4f99d42ae03f</xmpMM:OriginalDocumentID>
         <xmpMM:History>
            <rdf:Seq>
               <rdf:li>
                  <rdf:Description>
                     <stEvt:action>saved</stEvt:action>
                     <stEvt:instanceID>xmp.iid:98d78ed4-6b5f-4717-b568-4f99d42ae03f</stEvt:instanceID>
                     <stEvt:when>2020-03-16T20:36:23-07:00</stEvt:when>
                     <stEvt:softwareAgent>Adobe Bridge 2020 (Macintosh)</stEvt:softwareAgent>
                     <stEvt:changed>/metadata</stEvt:changed>
                  </rdf:Description>
               </rdf:li>
            </rdf:Seq>
         </xmpMM:History>
         <xmp:MetadataDate>2020-03-16T20:36:23-07:00</xmp:MetadataDate>
      </rdf:Description>
   </rdf:RDF>
</x:xmpmeta>
                                                                                                    
                                                                                                    
                                                                                                    
                                                                                                    
                                                                                                    
                                                                                                    
                                                                                                    
                                                                                                    
                                                                                                    
                                                                                                    
                                                                                                    
                                                                                                    
                                                                                                    
                                                                                                    
                                                                                                    
                                                                                                    
                                                                                                    
                                                                                                    
                                                                                                    
                                                                                                    
                           
<?xpacket end="w"?></metadata>
<defs><style>.a{fill:none;}.b{fill:#a3b6d2;}.c{fill:#18488e;}</style></defs><path class="a" d="M30,18.11v-1.9h0V10.54a4.73,4.73,0,0,0-4.73-4.73H8.2a4.73,4.73,0,0,0-4.73,4.73v7.57A4.73,4.73,0,0,0,8.2,22.84h17A4.74,4.74,0,0,0,30,18.11ZM6.31,11.67a1.14,1.14,0,0,1,1.13-1.13H9a1.14,1.14,0,0,1,1.13,1.13v1.52A1.14,1.14,0,0,1,9,14.32H7.44a1.14,1.14,0,0,1-1.13-1.13ZM12,19.05H6.31V17.16H12Zm7.51,0H13.88V17.16H19.5Zm1.95-1.89h5.68v1.89H21.45Z"/><path class="a" d="M31.86,17.26v.85A6.55,6.55,0,0,1,31.58,20h3.65A4.72,4.72,0,0,0,31.86,17.26Z"/><path class="a" d="M28.63,23.78a6.56,6.56,0,0,1-3.4.95H9.15v4.73a4.73,4.73,0,0,0,4.73,4.73h17a4.73,4.73,0,0,0,4.73-4.73V23.78Z"/><rect class="b" x="13.88" y="17.16" width="5.62" height="1.89"/><rect class="b" x="21.45" y="17.16" width="5.68" height="1.89"/><path class="b" d="M35.64,21.89A4.61,4.61,0,0,0,35.23,20H31.58a6.65,6.65,0,0,1-2.95,3.78h7Z"/><rect class="b" x="6.31" y="17.16" width="5.68" height="1.89"/><rect class="b" x="6.31" y="10.54" width="3.79" height="3.79" rx="1.14"/><path class="c" d="M37.54,21.89a6.64,6.64,0,0,0-5.68-6.55v-4.8a6.63,6.63,0,0,0-6.63-6.63H8.2a6.63,6.63,0,0,0-6.62,6.63v7.57a6.63,6.63,0,0,0,5.68,6.55v4.8a6.64,6.64,0,0,0,6.62,6.63h17a6.64,6.64,0,0,0,6.63-6.63ZM3.47,18.11V10.54A4.73,4.73,0,0,1,8.2,5.81h17A4.73,4.73,0,0,1,30,10.54v5.67h0v1.9a4.74,4.74,0,0,1-4.74,4.73H8.2A4.73,4.73,0,0,1,3.47,18.11ZM30.91,34.19h-17a4.73,4.73,0,0,1-4.73-4.73V24.73H25.23a6.56,6.56,0,0,0,3.4-.95A6.65,6.65,0,0,0,31.58,20a6.55,6.55,0,0,0,.28-1.89v-.85A4.72,4.72,0,0,1,35.23,20a4.61,4.61,0,0,1,.41,1.89v7.57A4.73,4.73,0,0,1,30.91,34.19Z"/></svg>