<svg xmlns="http://www.w3.org/2000/svg" viewBox="0 0 40 40"><metadata><?xpacket begin="﻿" id="W5M0MpCehiHzreSzNTczkc9d"?>
<x:xmpmeta xmlns:x="adobe:ns:meta/" x:xmptk="Adobe XMP Core 6.0-c002 79.164352, 2020/01/30-15:50:38        ">
   <rdf:RDF xmlns:rdf="http://www.w3.org/1999/02/22-rdf-syntax-ns#">
      <rdf:Description rdf:about=""
            xmlns:xmpMM="http://ns.adobe.com/xap/1.0/mm/"
            xmlns:stEvt="http://ns.adobe.com/xap/1.0/sType/ResourceEvent#"
            xmlns:xmp="http://ns.adobe.com/xap/1.0/">
         <xmpMM:PreservedFileName>Primary_Icons_Master_Dark_Blue_profile_8.svg</xmpMM:PreservedFileName>
         <xmpMM:InstanceID>xmp.iid:46a2dcc5-e342-4115-8547-550f2cd1f679</xmpMM:InstanceID>
         <xmpMM:DocumentID>xmp.did:46a2dcc5-e342-4115-8547-550f2cd1f679</xmpMM:DocumentID>
         <xmpMM:OriginalDocumentID>xmp.did:46a2dcc5-e342-4115-8547-550f2cd1f679</xmpMM:OriginalDocumentID>
         <xmpMM:History>
            <rdf:Seq>
               <rdf:li>
                  <rdf:Description>
                     <stEvt:action>saved</stEvt:action>
                     <stEvt:instanceID>xmp.iid:46a2dcc5-e342-4115-8547-550f2cd1f679</stEvt:instanceID>
                     <stEvt:when>2020-03-16T20:36:23-07:00</stEvt:when>
                     <stEvt:softwareAgent>Adobe Bridge 2020 (Macintosh)</stEvt:softwareAgent>
                     <stEvt:changed>/metadata</stEvt:changed>
                  </rdf:Description>
               </rdf:li>
            </rdf:Seq>
         </xmpMM:History>
         <xmp:MetadataDate>2020-03-16T20:36:23-07:00</xmp:MetadataDate>
      </rdf:Description>
   </rdf:RDF>
</x:xmpmeta>
                                                                                                    
                                                                                                    
                                                                                                    
                                                                                                    
                                                                                                    
                                                                                                    
                                                                                                    
                                                                                                    
                                                                                                    
                                                                                                    
                                                                                                    
                                                                                                    
                                                                                                    
                                                                                                    
                                                                                                    
                                                                                                    
                                                                                                    
                                                                                                    
                                                                                                    
                                                                                                    
                           
<?xpacket end="w"?></metadata>
<defs><style>.a{fill:none;}.b{fill:#a3b6d2;}.c{fill:#18488e;}</style></defs><rect class="a" x="29.57" y="4.01" width="5.64" height="5.64" rx="0.94"/><rect class="a" x="3.24" y="4.01" width="5.64" height="5.64" rx="0.94"/><rect class="a" x="3.24" y="30.35" width="5.64" height="5.64" rx="0.94"/><path class="a" d="M27.69,8.71V7.77H10.76v.94a2.83,2.83,0,0,1-2.82,2.83H7V28.46h.94a2.83,2.83,0,0,1,2.82,2.83v.94H27.69v-.94a2.83,2.83,0,0,1,2.82-2.83h.94V11.54h-.94A2.83,2.83,0,0,1,27.69,8.71Zm-8.47,3.77a3.76,3.76,0,1,1-3.76,3.76A3.76,3.76,0,0,1,19.22,12.48Zm-7.52,15a5.65,5.65,0,0,1,5.64-5.64h3.77a5.65,5.65,0,0,1,5.64,5.64Z"/><rect class="a" x="29.57" y="30.35" width="5.64" height="5.64" rx="0.94"/><rect class="b" x="31.45" y="11.54" width="1.88" height="16.93"/><rect class="b" x="5.12" y="11.54" width="1.88" height="16.93"/><rect class="b" x="10.76" y="32.23" width="16.93" height="1.88"/><rect class="b" x="10.76" y="5.89" width="16.93" height="1.88"/><path class="c" d="M21.11,21.88H17.34a5.65,5.65,0,0,0-5.64,5.64H26.75A5.65,5.65,0,0,0,21.11,21.88Z"/><path class="c" d="M10.76,31.29a2.83,2.83,0,0,0-2.82-2.83H4.18a2.83,2.83,0,0,0-2.83,2.83v3.76a2.83,2.83,0,0,0,2.83,2.82H7.94a2.83,2.83,0,0,0,2.82-2.82V31.29ZM8.88,35.05a.94.94,0,0,1-.94.94H4.18a.94.94,0,0,1-.94-.94V31.29a.94.94,0,0,1,.94-.94H7.94a.94.94,0,0,1,.94.94Z"/><path class="c" d="M30.51,28.46a2.83,2.83,0,0,0-2.82,2.83v3.76a2.82,2.82,0,0,0,2.82,2.82h3.76a2.82,2.82,0,0,0,2.82-2.82V31.29a2.83,2.83,0,0,0-2.82-2.83H30.51Zm3.76,1.89a.94.94,0,0,1,.94.94v3.76a.94.94,0,0,1-.94.94H30.51a.94.94,0,0,1-.94-.94V31.29a.94.94,0,0,1,.94-.94Z"/><path class="c" d="M27.69,8.71a2.83,2.83,0,0,0,2.82,2.83h3.76a2.83,2.83,0,0,0,2.82-2.83V5a2.82,2.82,0,0,0-2.82-2.82H30.51A2.82,2.82,0,0,0,27.69,5V8.71ZM29.57,5A.94.94,0,0,1,30.51,4h3.76a.94.94,0,0,1,.94.94V8.71a.94.94,0,0,1-.94.94H30.51a.94.94,0,0,1-.94-.94Z"/><path class="c" d="M7.94,11.54a2.83,2.83,0,0,0,2.82-2.83V5A2.83,2.83,0,0,0,7.94,2.13H4.18A2.83,2.83,0,0,0,1.35,5V8.71a2.83,2.83,0,0,0,2.83,2.83H7.94ZM4.18,9.65a.94.94,0,0,1-.94-.94V5A.94.94,0,0,1,4.18,4H7.94A.94.94,0,0,1,8.88,5V8.71a.94.94,0,0,1-.94.94Z"/><path class="c" d="M19.22,20a3.76,3.76,0,1,0-3.76-3.76A3.76,3.76,0,0,0,19.22,20Z"/></svg>